<?xml version="1.0" encoding="utf-8"?>
<!-- Generator: Adobe Illustrator 17.0.0, SVG Export Plug-In . SVG Version: 6.00 Build 0)  -->
<!DOCTYPE svg PUBLIC "-//W3C//DTD SVG 1.1//EN" "http://www.w3.org/Graphics/SVG/1.1/DTD/svg11.dtd">
<svg version="1.1" id="Capa_1" xmlns="http://www.w3.org/2000/svg" xmlns:xlink="http://www.w3.org/1999/xlink" x="0px" y="0px"
	 width="27.027px" height="27.917px" viewBox="0 0 27.027 27.917" style="enable-background:new 0 0 27.027 27.917;"
	 xml:space="preserve">
<g>
	<defs>
		<rect id="SVGID_1_" x="0" y="0" width="27.027" height="27.917"/>
	</defs>
	<clipPath id="SVGID_2_">
		<use xlink:href="#SVGID_1_"  style="overflow:visible;"/>
	</clipPath>
	<g style="clip-path:url(#SVGID_2_);">
		<path style="fill:#333333;" d="M21.699,27.917c-2.935,0-5.322-2.389-5.322-5.324c0-0.541,0.081-1.063,0.231-1.556l-7.125-3.758
			c-0.977,1.221-2.479,2.003-4.16,2.003C2.388,19.282,0,16.894,0,13.957c0-2.936,2.388-5.324,5.323-5.324
			c1.681,0,3.183,0.782,4.16,2.002l7.125-3.755c-0.15-0.492-0.231-1.015-0.231-1.556C16.377,2.388,18.765,0,21.699,0
			c2.938,0,5.327,2.388,5.327,5.324c0,2.937-2.39,5.325-5.327,5.325c-1.68,0-3.18-0.782-4.155-2.001l-7.125,3.755
			c0.15,0.492,0.231,1.014,0.231,1.554s-0.081,1.062-0.231,1.555l7.125,3.758c0.976-1.22,2.476-2.002,4.155-2.002
			c2.938,0,5.327,2.389,5.327,5.325C27.026,25.528,24.637,27.917,21.699,27.917z M21.699,19.268c-1.832,0-3.322,1.491-3.322,3.325
			c0,1.833,1.49,3.324,3.322,3.324c1.835,0,3.327-1.491,3.327-3.324C25.026,20.759,23.534,19.268,21.699,19.268z M5.323,10.633
			C3.491,10.633,2,12.124,2,13.957c0,1.834,1.491,3.325,3.323,3.325c1.834,0,3.327-1.491,3.327-3.325
			C8.65,12.124,7.157,10.633,5.323,10.633z M21.699,2c-1.832,0-3.322,1.491-3.322,3.324c0,1.833,1.49,3.325,3.322,3.325
			c1.835,0,3.327-1.492,3.327-3.325C25.026,3.491,23.534,2,21.699,2z"/>
	</g>
</g>
</svg>
