<?xml version="1.0" encoding="utf-8"?>
<!-- Generator: Adobe Illustrator 17.0.0, SVG Export Plug-In . SVG Version: 6.00 Build 0)  -->
<!DOCTYPE svg PUBLIC "-//W3C//DTD SVG 1.1//EN" "http://www.w3.org/Graphics/SVG/1.1/DTD/svg11.dtd">
<svg version="1.1" id="Capa_1" xmlns="http://www.w3.org/2000/svg" xmlns:xlink="http://www.w3.org/1999/xlink" x="0px" y="0px"
	 width="10.377px" height="20px" viewBox="0 0 10.377 20" style="enable-background:new 0 0 10.377 20;" xml:space="preserve">
<g>
	<defs>
		<rect id="SVGID_1_" x="0" width="10.377" height="20"/>
	</defs>
	<clipPath id="SVGID_2_">
		<use xlink:href="#SVGID_1_"  style="overflow:visible;"/>
	</clipPath>
	<g style="clip-path:url(#SVGID_2_);">
		<defs>
			<rect id="SVGID_3_" x="0" width="10.377" height="20"/>
		</defs>
		<clipPath id="SVGID_4_">
			<use xlink:href="#SVGID_3_"  style="overflow:visible;"/>
		</clipPath>
		<g style="opacity:0.95;clip-path:url(#SVGID_4_);">
			<g>
				<defs>
					<rect id="SVGID_5_" x="-9" y="-7" width="28.377" height="28"/>
				</defs>
				<clipPath id="SVGID_6_">
					<use xlink:href="#SVGID_5_"  style="overflow:visible;"/>
				</clipPath>
				<path style="clip-path:url(#SVGID_6_);fill:#333333;" d="M7.643,0C6.251,0,5.138,0.409,4.306,1.227
					C3.474,2.045,3.057,3.201,3.057,4.693V7.32H0v3.552h3.057V20h3.682v-9.128h3.057l0.473-3.552h-3.53V5.038
					c0-0.574,0.122-1.005,0.366-1.292c0.244-0.287,0.71-0.431,1.399-0.431h1.873V0.151C9.731,0.05,8.82,0,7.643,0"/>
			</g>
		</g>
	</g>
</g>
</svg>
