<?xml version="1.0" encoding="utf-8"?>
<!-- Generator: Adobe Illustrator 17.0.0, SVG Export Plug-In . SVG Version: 6.00 Build 0)  -->
<!DOCTYPE svg PUBLIC "-//W3C//DTD SVG 1.1//EN" "http://www.w3.org/Graphics/SVG/1.1/DTD/svg11.dtd">
<svg version="1.1" id="instagram" xmlns="http://www.w3.org/2000/svg" xmlns:xlink="http://www.w3.org/1999/xlink" x="0px" y="0px"
	 width="14.231px" height="14.247px" viewBox="0 0 14.231 14.247" style="enable-background:new 0 0 14.231 14.247;"
	 xml:space="preserve">
<g>
	<defs>
		<rect id="SVGID_1_" x="0" y="0" width="14.231" height="14.247"/>
	</defs>
	<clipPath id="SVGID_2_">
		<use xlink:href="#SVGID_1_"  style="overflow:visible;"/>
	</clipPath>
	<path style="clip-path:url(#SVGID_2_);fill:#333333;" d="M13.699,0.548C13.334,0.183,12.902,0,12.404,0H1.827
		C1.318,0.011,0.886,0.194,0.532,0.548C0.178,0.903,0.001,1.329,0.001,1.827V12.42c-0.011,0.488,0.166,0.914,0.531,1.279
		s0.797,0.548,1.295,0.548h10.577c0.509-0.011,0.941-0.194,1.295-0.548s0.532-0.78,0.532-1.279V1.827
		C14.242,1.34,14.065,0.914,13.699,0.548 M12.437,4.218C12.315,4.34,12.166,4.4,11.989,4.4h-1.627c-0.177,0-0.327-0.06-0.448-0.182
		C9.792,4.096,9.731,3.941,9.731,3.753V2.225c0-0.177,0.061-0.326,0.183-0.448c0.121-0.122,0.271-0.183,0.448-0.183h1.627
		c0.177-0.011,0.326,0.05,0.448,0.183c0.122,0.133,0.183,0.282,0.183,0.448v1.528C12.62,3.941,12.559,4.096,12.437,4.218 M9.15,9.05
		C8.596,9.592,7.921,9.863,7.124,9.863c-0.764,0-1.434-0.271-2.009-0.813C4.539,8.507,4.257,7.854,4.268,7.09
		c0.011-0.763,0.293-1.416,0.847-1.959c0.553-0.542,1.223-0.814,2.009-0.814S8.585,4.589,9.15,5.131
		C9.714,5.674,9.997,6.327,9.997,7.09C9.985,7.854,9.703,8.507,9.15,9.05 M12.454,12.437c-0.111,0.111-0.244,0.166-0.398,0.166
		H2.159c-0.166,0-0.304-0.055-0.415-0.166s-0.166-0.243-0.166-0.398V6.028H2.89C2.768,6.415,2.707,6.819,2.707,7.24
		c0,1.184,0.432,2.197,1.295,3.038c0.864,0.842,1.904,1.262,3.122,1.262c0.808,0,1.55-0.193,2.225-0.581
		c0.675-0.387,1.212-0.907,1.611-1.561c0.398-0.653,0.597-1.372,0.597-2.158c0-0.421-0.061-0.825-0.182-1.212h1.245v6.011
		C12.62,12.194,12.565,12.326,12.454,12.437"/>
</g>
</svg>
