<?xml version="1.0" encoding="utf-8"?>
<!-- Generator: Adobe Illustrator 17.0.0, SVG Export Plug-In . SVG Version: 6.00 Build 0)  -->
<!DOCTYPE svg PUBLIC "-//W3C//DTD SVG 1.1//EN" "http://www.w3.org/Graphics/SVG/1.1/DTD/svg11.dtd">
<svg version="1.1" id="Capa_1" xmlns="http://www.w3.org/2000/svg" xmlns:xlink="http://www.w3.org/1999/xlink" x="0px" y="0px"
	 width="180.235px" height="35px" viewBox="0 0 180.235 35" style="enable-background:new 0 0 180.235 35;" xml:space="preserve">
<g>
	<defs>
		<rect id="SVGID_1_" x="0" width="180.235" height="35"/>
	</defs>
	<clipPath id="SVGID_2_">
		<use xlink:href="#SVGID_1_"  style="overflow:visible;"/>
	</clipPath>
	<path style="clip-path:url(#SVGID_2_);fill:#333333;" d="M37.312,13.169c0-0.475,0.182-1.023,0.365-1.206
		c-0.036-0.037-0.183-0.073-0.292-0.073c-0.585,0-1.499,0.402-2.194,1.719v-0.147c0.476-1.536,1.902-2.962,3.365-2.962
		c1.645,0,2.376,0.914,2.376,2.304c0,1.316-0.841,2.011-1.901,2.011C38.043,14.815,37.312,14.157,37.312,13.169 M34.241,22.494
		c0,2.56,0.914,3.145,2.779,3.365v0.292h-8.3v-0.292c2.048-0.257,2.377-0.914,2.377-3.365v-7.24c0-1.244-0.586-1.756-0.988-2.085
		c-0.292-0.255-0.621-0.475-0.95-0.621v-0.219l5.009-1.866l0.073,0.037V22.494z"/>
	<path style="clip-path:url(#SVGID_2_);fill:#333333;" d="M54.68,11.706l3.839-1.207l-0.364,2.414l-3.475-0.914V11.706z
		 M49.158,10.756v-0.257c2.78,0.147,6.108,1.938,6.108,5.156c0,3.401-2.853,5.266-5.486,5.486v-0.257
		c1.829-0.694,2.45-2.413,2.487-4.717C52.267,12.986,50.951,11.268,49.158,10.756 M47.879,10.536v0.256
		c-1.828,0.694-2.45,2.45-2.487,4.754c0,3.181,1.316,4.863,3.108,5.375v0.256c-2.778-0.147-6.106-1.902-6.106-5.119
		C42.394,12.657,45.246,10.756,47.879,10.536 M53.291,32.623c0.841-0.512,2.194-1.792,2.194-3.292c0-1.169-0.402-2.12-2.853-2.12
		c-1.06,0-5.777,0.292-7.167,0.292c-1.389,0-3.291-0.695-3.291-2.852c0-0.293,0.11-0.804,0.439-1.28
		c0.549-0.841,1.536-1.792,2.34-2.376l0.147,0.109c-0.44,0.548-0.622,1.134-0.622,1.609c0,1.097,0.987,1.316,1.902,1.316
		c0.95,0,3.766-0.256,6.033-0.256c3.291,0,4.9,1.025,4.9,3.913c0,2.596-3.035,4.68-4.022,5.156V32.623z M52.194,33.354
		C51.463,33.829,49.049,35,46.233,35c-3.217,0-5.083-1.317-5.083-3.146c0-1.755,2.963-3.62,3.913-3.839l0.11,0.183
		c-0.659,0.293-1.463,1.243-1.463,2.633c0,1.938,0.732,3.291,3.656,3.291c1.756,0,3.804-0.476,4.828-0.988V33.354z"/>
	<path style="clip-path:url(#SVGID_2_);fill:#333333;" d="M73.511,22.823c0,1.61,0.402,1.865,1.134,2.048
		c0.548,0.146,0.987,0.22,1.426,0.292v0.256l-5.595,0.951l-0.109-0.036V14.815c0-2.45-0.366-3.035-2.634-3.328v-0.292l5.705-0.549
		l0.073,0.037V22.823z M60.42,14.815c0-2.45-0.109-3.035-2.377-3.328v-0.292l5.449-0.549l0.073,0.037v9.946
		c0,2.742,0.695,3.693,3.035,3.693c1.243,0,1.975-0.255,2.816-0.768v0.147c-0.951,1.499-2.524,2.669-4.718,2.669
		c-3.108,0-4.278-1.865-4.278-4.754V14.815z"/>
	<path style="clip-path:url(#SVGID_2_);fill:#333333;" d="M79.322,5.161c0-1.243-0.585-1.756-0.987-2.085
		c-0.293-0.255-0.622-0.475-0.951-0.621v-0.22l5.12-1.828l0.073,0.037c-0.037,1.498-0.11,3.656-0.11,5.119v16.93
		c0,2.377,0.475,3.109,2.413,3.365v0.292h-7.934v-0.292c2.047-0.256,2.376-0.914,2.376-3.365V5.161z"/>
	<path style="clip-path:url(#SVGID_2_);fill:#333333;" d="M88.316,5.161c0-1.243-0.584-1.756-0.987-2.085
		c-0.293-0.255-0.622-0.475-0.951-0.621v-0.22l5.12-1.828l0.073,0.037c-0.037,1.498-0.11,3.656-0.11,5.119v16.93
		c0,2.377,0.475,3.109,2.413,3.365v0.292H85.94v-0.292c2.047-0.256,2.376-0.914,2.376-3.365V5.161z"/>
	<path style="clip-path:url(#SVGID_2_);fill:#333333;" d="M111.498,16.095v-0.329c0.512-0.037,1.243-0.183,1.682-0.329
		c2.779-0.842,4.022-2.451,4.022-6.071c0-2.889-1.17-4.79-4.168-5.668c-0.439-0.146-0.951-0.219-1.536-0.293V3.113
		c0.402,0,1.755,0.074,2.413,0.183c5.12,0.695,6.948,2.815,6.948,5.997C120.859,12.62,117.495,15.838,111.498,16.095
		 M109.377,21.616c0,3.072,1.134,3.949,3.986,4.242v0.292h-10.824v-0.292c2.486-0.293,3.254-1.17,3.254-4.242V7.647
		c0-3.071-0.768-3.949-3.254-4.242V3.113h6.838V21.616z"/>
	<path style="clip-path:url(#SVGID_2_);fill:#333333;" d="M125.354,11.78c0.658-0.549,2.56-1.28,3.583-1.28
		c2.597,0,4.096,1.28,4.096,4.168v8.374c0,1.28,0.439,1.719,1.463,1.719c0.365,0,0.914-0.146,1.243-0.329v0.256
		c-0.366,0.768-1.39,1.755-3.108,1.755c-1.756,0-2.743-1.17-2.743-3.072v-8.63c0-1.828-1.389-2.852-4.534-2.852V11.78z
		 M124.366,12.657c0.914,0,1.683,0.768,1.683,1.683c0,0.95-0.769,1.718-1.683,1.718c-0.913,0-1.681-0.768-1.681-1.718
		C122.685,13.425,123.453,12.657,124.366,12.657 M129.157,24.322v0.146c-0.439,0.951-1.902,1.975-3.584,1.975
		c-2.413,0-3.693-1.645-3.693-3.474c0-1.828,0.914-2.889,1.207-2.999c0.695-0.292,3.62-1.316,5.704-1.901v0.292
		c-1.17,0.44-2.596,0.988-3.254,1.829c-0.403,0.512-0.585,1.28-0.585,2.011c0,1.536,0.768,2.523,2.486,2.523
		C128.06,24.724,128.901,24.468,129.157,24.322"/>
	<path style="clip-path:url(#SVGID_2_);fill:#333333;" d="M149.851,11.706l3.84-1.207l-0.365,2.414l-3.475-0.914V11.706z
		 M144.329,10.756v-0.257c2.78,0.147,6.108,1.938,6.108,5.156c0,3.401-2.853,5.266-5.486,5.486v-0.257
		c1.829-0.694,2.45-2.413,2.487-4.717C147.438,12.986,146.122,11.268,144.329,10.756 M143.05,10.536v0.256
		c-1.828,0.694-2.45,2.45-2.487,4.754c0,3.181,1.316,4.863,3.108,5.375v0.256c-2.778-0.147-6.106-1.902-6.106-5.119
		C137.565,12.657,140.417,10.756,143.05,10.536 M148.462,32.623c0.841-0.512,2.193-1.792,2.193-3.292c0-1.169-0.401-2.12-2.852-2.12
		c-1.06,0-5.777,0.292-7.167,0.292c-1.389,0-3.291-0.695-3.291-2.852c0-0.293,0.11-0.804,0.439-1.28
		c0.549-0.841,1.536-1.792,2.34-2.376l0.147,0.109c-0.44,0.548-0.622,1.134-0.622,1.609c0,1.097,0.987,1.316,1.902,1.316
		c0.951,0,3.766-0.256,6.033-0.256c3.291,0,4.9,1.025,4.9,3.913c0,2.596-3.035,4.68-4.022,5.156V32.623z M147.365,33.354
		C146.634,33.829,144.22,35,141.404,35c-3.217,0-5.083-1.317-5.083-3.146c0-1.755,2.963-3.62,3.913-3.839l0.11,0.183
		c-0.659,0.293-1.463,1.243-1.463,2.633c0,1.938,0.732,3.291,3.656,3.291c1.756,0,3.804-0.476,4.828-0.988V33.354z"/>
	<path style="clip-path:url(#SVGID_2_);fill:#333333;" d="M158.26,16.058v-0.256l5.595-0.438c-0.146-2.304-0.768-4.425-2.56-4.571
		V10.5c3.328,0.11,5.778,2.743,5.778,5.558H158.26z M157.346,3.26l1.755-1.463l3.803,6.911l-0.292,0.183L157.346,3.26z
		 M160.198,10.865c-2.047,0.366-3.29,2.962-3.29,6.216c0,3.731,1.937,6.912,5.521,6.912c2.706,0,4.241-1.171,5.083-2.341
		l0.183,0.146c-0.622,1.609-2.78,4.644-6.655,4.644c-4.572,0-7.241-3.583-7.241-7.825c0-4.461,3.255-7.679,6.399-8.044V10.865z"/>
	<path style="clip-path:url(#SVGID_2_);fill:#333333;" d="M175.189,10.5c1.645,0,3.4,0.438,3.986,0.768l0.218,3.949h-0.255
		c-0.731-2.303-2.268-4.205-3.949-4.461V10.5z M173.835,10.829c-0.694,0.073-1.681,1.024-1.681,2.34c0,2.012,1.498,2.56,3.656,3.62
		c2.34,1.134,4.425,2.304,4.425,4.718c0,3.291-2.669,4.863-5.303,4.936v-0.219c1.537-0.183,2.78-1.17,2.78-3.072
		c0-1.938-1.829-2.559-3.986-3.62c-1.865-0.914-4.06-1.974-4.06-4.608c0-2.376,1.719-4.058,4.169-4.351V10.829z M173.543,26.443
		c-1.207-0.036-3.255-0.475-4.023-0.841l-0.292-4.644h0.256c0.585,2.23,2.084,4.681,4.059,5.266V26.443z"/>
	<path style="clip-path:url(#SVGID_2_);fill:#333333;" d="M13.134,0C5.879,0,0,5.878,0,13.131C0,20.379,5.879,26.26,13.134,26.26
		c7.248,0,13.128-5.881,13.128-13.129C26.262,5.878,20.382,0,13.134,0 M13.134,2.555c5.826,0,10.571,4.74,10.571,10.576
		c0,5.834-4.745,10.575-10.571,10.575c-5.835,0-10.58-4.741-10.58-10.575C2.554,7.295,7.299,2.555,13.134,2.555"/>
</g>
</svg>
