<?xml version="1.0" encoding="utf-8"?>
<!-- Generator: Adobe Illustrator 17.0.0, SVG Export Plug-In . SVG Version: 6.00 Build 0)  -->
<!DOCTYPE svg PUBLIC "-//W3C//DTD SVG 1.1//EN" "http://www.w3.org/Graphics/SVG/1.1/DTD/svg11.dtd">
<svg version="1.1" id="Capa_1" xmlns="http://www.w3.org/2000/svg" xmlns:xlink="http://www.w3.org/1999/xlink" x="0px" y="0px"
	 width="231.73px" height="45px" viewBox="0 0 231.73 45" style="enable-background:new 0 0 231.73 45;" xml:space="preserve">
<g>
	<g>
		<path style="fill:#333333;" d="M47.972,16.931c0-0.611,0.235-1.316,0.471-1.551c-0.047-0.047-0.236-0.094-0.376-0.094
			c-0.753,0-1.928,0.517-2.821,2.21v-0.189c0.612-1.974,2.445-3.808,4.326-3.808c2.115,0,3.055,1.176,3.055,2.962
			c0,1.693-1.081,2.586-2.444,2.586C48.913,19.047,47.972,18.201,47.972,16.931 M44.023,28.92c0,3.291,1.175,4.044,3.574,4.326
			v0.376H36.924v-0.376c2.633-0.329,3.056-1.175,3.056-4.326v-9.308c0-1.6-0.752-2.258-1.27-2.681
			c-0.375-0.328-0.798-0.611-1.221-0.798V15.85l6.44-2.398l0.094,0.047V28.92z"/>
		<path style="fill:#333333;" d="M70.304,15.051L75.24,13.5l-0.469,3.103l-4.467-1.175V15.051z M63.204,13.829V13.5
			c3.574,0.187,7.852,2.491,7.852,6.628c0,4.373-3.668,6.771-7.052,7.053v-0.329c2.35-0.894,3.149-3.103,3.196-6.066
			C67.2,16.696,65.509,14.487,63.204,13.829 M61.559,13.547v0.328c-2.351,0.893-3.15,3.151-3.198,6.113
			c0,4.09,1.693,6.253,3.997,6.911v0.329c-3.573-0.189-7.852-2.445-7.852-6.582C54.506,16.273,58.174,13.829,61.559,13.547
			 M68.518,41.944c1.081-0.658,2.82-2.304,2.82-4.232c0-1.504-0.517-2.727-3.667-2.727c-1.364,0-7.429,0.376-9.215,0.376
			s-4.232-0.893-4.232-3.667c0-0.376,0.142-1.034,0.565-1.646c0.705-1.081,1.974-2.303,3.009-3.055l0.188,0.141
			c-0.565,0.705-0.8,1.458-0.8,2.068c0,1.411,1.27,1.693,2.445,1.693c1.223,0,4.843-0.329,7.757-0.329
			c4.232,0,6.301,1.317,6.301,5.03c0,3.339-3.903,6.018-5.171,6.63V41.944z M67.107,42.884C66.167,43.495,63.063,45,59.443,45
			c-4.137,0-6.535-1.693-6.535-4.044c0-2.256,3.809-4.655,5.03-4.936l0.142,0.235c-0.847,0.376-1.881,1.599-1.881,3.385
			c0,2.491,0.941,4.232,4.701,4.232c2.258,0,4.89-0.612,6.207-1.27V42.884z"/>
		<path style="fill:#333333;" d="M94.514,29.344c0,2.069,0.518,2.398,1.458,2.633c0.705,0.188,1.269,0.282,1.833,0.376v0.329
			l-7.193,1.223l-0.141-0.047v-14.81c0-3.15-0.47-3.902-3.385-4.279v-0.376l7.335-0.705l0.093,0.047V29.344z M77.683,19.048
			c0-3.15-0.141-3.902-3.056-4.279v-0.376l7.005-0.705l0.095,0.047v12.789c0,3.525,0.893,4.748,3.902,4.748
			c1.598,0,2.539-0.329,3.62-0.988v0.189c-1.223,1.927-3.244,3.432-6.065,3.432c-3.997,0-5.501-2.398-5.501-6.112V19.048z"/>
		<path style="fill:#333333;" d="M101.986,6.636c0-1.598-0.752-2.257-1.269-2.68c-0.377-0.329-0.8-0.611-1.223-0.799V2.875
			l6.583-2.351l0.093,0.047c-0.047,1.927-0.14,4.701-0.14,6.581v21.769c0,3.056,0.611,3.996,3.102,4.326v0.375H98.931v-0.375
			c2.632-0.33,3.055-1.176,3.055-4.326V6.636z"/>
		<path style="fill:#333333;" d="M113.549,6.636c0-1.598-0.751-2.257-1.269-2.68c-0.377-0.329-0.8-0.611-1.223-0.799V2.875
			l6.583-2.351l0.093,0.047c-0.047,1.927-0.14,4.701-0.14,6.581v21.769c0,3.056,0.611,3.996,3.102,4.326v0.375h-10.201v-0.375
			c2.632-0.33,3.055-1.176,3.055-4.326V6.636z"/>
		<path style="fill:#333333;" d="M143.354,20.693V20.27c0.658-0.047,1.598-0.235,2.163-0.423c3.572-1.082,5.171-3.151,5.171-7.805
			c0-3.714-1.504-6.159-5.359-7.287c-0.565-0.188-1.223-0.282-1.975-0.377V4.003c0.517,0,2.256,0.094,3.103,0.235
			c6.582,0.893,8.933,3.619,8.933,7.71C155.39,16.226,151.064,20.364,143.354,20.693 M140.627,27.792
			c0,3.949,1.458,5.078,5.125,5.454v0.376h-13.917v-0.376c3.197-0.376,4.185-1.505,4.185-5.454V9.833
			c0-3.95-0.988-5.078-4.185-5.455V4.003h8.792V27.792z"/>
		<path style="fill:#333333;" d="M161.169,15.145c0.846-0.705,3.292-1.646,4.608-1.646c3.338,0,5.265,1.646,5.265,5.36v10.766
			c0,1.646,0.565,2.211,1.881,2.211c0.47,0,1.175-0.188,1.598-0.423v0.328c-0.47,0.988-1.786,2.257-3.995,2.257
			c-2.258,0-3.527-1.504-3.527-3.95V18.953c0-2.35-1.786-3.667-5.83-3.667V15.145z M159.899,16.273c1.176,0,2.163,0.988,2.163,2.163
			c0,1.222-0.987,2.21-2.163,2.21c-1.174,0-2.162-0.988-2.162-2.21C157.737,17.261,158.725,16.273,159.899,16.273 M166.059,31.271
			v0.188c-0.565,1.223-2.445,2.539-4.607,2.539c-3.104,0-4.749-2.115-4.749-4.466s1.175-3.714,1.552-3.856
			c0.893-0.376,4.653-1.692,7.334-2.444v0.375c-1.505,0.565-3.339,1.27-4.185,2.351c-0.517,0.658-0.752,1.646-0.752,2.586
			c0,1.974,0.987,3.244,3.197,3.244C164.648,31.788,165.729,31.459,166.059,31.271"/>
		<path style="fill:#333333;" d="M192.666,15.051l4.936-1.551l-0.469,3.103l-4.467-1.175V15.051z M185.566,13.829V13.5
			c3.574,0.187,7.852,2.491,7.852,6.628c0,4.373-3.668,6.771-7.052,7.053v-0.329c2.351-0.894,3.149-3.103,3.196-6.066
			C189.562,16.696,187.871,14.487,185.566,13.829 M183.921,13.547v0.328c-2.351,0.893-3.15,3.151-3.198,6.113
			c0,4.09,1.693,6.253,3.997,6.911v0.329c-3.573-0.189-7.851-2.445-7.851-6.582C176.869,16.273,180.536,13.829,183.921,13.547
			 M190.88,41.944c1.081-0.658,2.82-2.304,2.82-4.232c0-1.504-0.517-2.727-3.667-2.727c-1.364,0-7.429,0.376-9.215,0.376
			c-1.786,0-4.232-0.893-4.232-3.667c0-0.376,0.142-1.034,0.565-1.646c0.705-1.081,1.974-2.303,3.009-3.055l0.188,0.141
			c-0.565,0.705-0.8,1.458-0.8,2.068c0,1.411,1.27,1.693,2.445,1.693c1.223,0,4.843-0.329,7.757-0.329
			c4.232,0,6.301,1.317,6.301,5.03c0,3.339-3.903,6.018-5.171,6.63V41.944z M189.469,42.884c-0.94,0.611-4.044,2.116-7.664,2.116
			c-4.137,0-6.535-1.693-6.535-4.044c0-2.256,3.809-4.655,5.03-4.936l0.142,0.235c-0.847,0.376-1.881,1.599-1.881,3.385
			c0,2.491,0.941,4.232,4.701,4.232c2.258,0,4.89-0.612,6.207-1.27V42.884z"/>
		<path style="fill:#333333;" d="M203.477,20.646v-0.33l7.194-0.563c-0.188-2.962-0.988-5.69-3.291-5.878V13.5
			c4.278,0.14,7.428,3.526,7.428,7.146H203.477z M202.302,4.191l2.256-1.881l4.89,8.886l-0.376,0.235L202.302,4.191z M205.969,13.97
			c-2.632,0.47-4.231,3.808-4.231,7.992c0,4.796,2.492,8.886,7.099,8.886c3.479,0,5.454-1.505,6.536-3.009l0.235,0.188
			c-0.8,2.069-3.574,5.971-8.557,5.971c-5.877,0-9.309-4.607-9.309-10.061c0-5.735,4.184-9.874,8.227-10.343V13.97z"/>
		<path style="fill:#333333;" d="M225.242,13.5c2.116,0,4.372,0.563,5.125,0.987l0.281,5.078h-0.329
			c-0.94-2.962-2.915-5.407-5.077-5.736V13.5z M223.502,13.923c-0.893,0.094-2.162,1.316-2.162,3.009
			c0,2.586,1.927,3.291,4.701,4.654c3.009,1.458,5.689,2.962,5.689,6.066c0,4.231-3.432,6.253-6.818,6.346v-0.281
			c1.976-0.235,3.574-1.505,3.574-3.95c0-2.492-2.351-3.291-5.125-4.654c-2.398-1.176-5.219-2.539-5.219-5.925
			c0-3.055,2.21-5.218,5.36-5.594V13.923z M223.126,33.998c-1.551-0.046-4.184-0.611-5.172-1.081l-0.376-5.971h0.329
			c0.752,2.868,2.68,6.018,5.219,6.771V33.998z"/>
		<path style="fill:#333333;" d="M16.886,0C7.559,0,0,7.557,0,16.882c0,9.319,7.559,16.881,16.886,16.881
			c9.319,0,16.878-7.562,16.878-16.881C33.764,7.557,26.205,0,16.886,0 M16.886,3.285c7.491,0,13.591,6.094,13.591,13.597
			c0,7.501-6.1,13.597-13.591,13.597c-7.503,0-13.603-6.096-13.603-13.597C3.283,9.379,9.383,3.285,16.886,3.285"/>
	</g>
</g>
</svg>
