<?xml version="1.0" encoding="utf-8"?>
<!-- Generator: Adobe Illustrator 17.0.0, SVG Export Plug-In . SVG Version: 6.00 Build 0)  -->
<!DOCTYPE svg PUBLIC "-//W3C//DTD SVG 1.1//EN" "http://www.w3.org/Graphics/SVG/1.1/DTD/svg11.dtd">
<svg version="1.1" id="Capa_1" xmlns="http://www.w3.org/2000/svg" xmlns:xlink="http://www.w3.org/1999/xlink" x="0px" y="0px"
	 width="27.385px" height="26.866px" viewBox="0 0 27.385 26.866" style="enable-background:new 0 0 27.385 26.866;"
	 xml:space="preserve">
<g>
	<defs>
		<rect id="SVGID_1_" x="0" y="0" width="27.385" height="26.866"/>
	</defs>
	<clipPath id="SVGID_2_">
		<use xlink:href="#SVGID_1_"  style="overflow:visible;"/>
	</clipPath>
	<g style="clip-path:url(#SVGID_2_);">
		<path style="fill:#333333;" d="M11.531,23.061C5.173,23.061,0,17.888,0,11.531C0,5.173,5.173,0,11.531,0
			s11.531,5.173,11.531,11.531C23.062,17.888,17.889,23.061,11.531,23.061z M11.531,2C6.275,2,2,6.276,2,11.531
			c0,5.255,4.275,9.53,9.531,9.53s9.531-4.275,9.531-9.53C21.062,6.276,16.786,2,11.531,2z"/>
	</g>
	<g style="clip-path:url(#SVGID_2_);">
		
			<rect x="17.998" y="21.768" transform="matrix(0.7419 0.6705 -0.6705 0.7419 21.2025 -9.546)" style="fill:#333333;" width="10.008" height="2.001"/>
	</g>
</g>
</svg>
