<?xml version="1.0" encoding="utf-8"?>
<!-- Generator: Adobe Illustrator 17.0.0, SVG Export Plug-In . SVG Version: 6.00 Build 0)  -->
<!DOCTYPE svg PUBLIC "-//W3C//DTD SVG 1.1//EN" "http://www.w3.org/Graphics/SVG/1.1/DTD/svg11.dtd">
<svg version="1.1" id="Capa_1" xmlns="http://www.w3.org/2000/svg" xmlns:xlink="http://www.w3.org/1999/xlink" x="0px" y="0px"
	 width="20.925px" height="17px" viewBox="0 0 20.925 17" style="enable-background:new 0 0 20.925 17;" xml:space="preserve">
<g>
	<defs>
		<rect id="SVGID_1_" x="0" width="20.925" height="17"/>
	</defs>
	<clipPath id="SVGID_2_">
		<use xlink:href="#SVGID_1_"  style="overflow:visible;"/>
	</clipPath>
	<g style="clip-path:url(#SVGID_2_);">
		<defs>
			<rect id="SVGID_3_" x="0" width="20.925" height="17"/>
		</defs>
		<clipPath id="SVGID_4_">
			<use xlink:href="#SVGID_3_"  style="overflow:visible;"/>
		</clipPath>
		<g style="opacity:0.95;clip-path:url(#SVGID_4_);">
			<g>
				<defs>
					<rect id="SVGID_5_" x="-9" y="-7" width="38.925" height="25"/>
				</defs>
				<clipPath id="SVGID_6_">
					<use xlink:href="#SVGID_5_"  style="overflow:visible;"/>
				</clipPath>
				<path style="clip-path:url(#SVGID_6_);fill:#333333;" d="M18.449,2.69c0.936-0.571,1.563-1.365,1.881-2.381
					c-0.842,0.509-1.746,0.857-2.714,1.048C16.774,0.452,15.727,0,14.473,0c-1.174,0.016-2.182,0.437-3.023,1.262
					c-0.841,0.825-1.262,1.833-1.262,3.023c0,0.318,0.04,0.643,0.119,0.976C8.53,5.182,6.879,4.745,5.356,3.952
					C3.832,3.158,2.531,2.103,1.452,0.786c-0.397,0.666-0.595,1.38-0.595,2.142c0,0.762,0.174,1.452,0.523,2.071
					c0.349,0.619,0.818,1.127,1.405,1.524C2.086,6.491,1.436,6.308,0.833,5.975v0.048c0,1.047,0.325,1.96,0.976,2.737
					c0.65,0.778,1.476,1.27,2.476,1.476c-0.381,0.096-0.762,0.143-1.143,0.143c-0.238,0-0.508-0.015-0.809-0.047
					c0.285,0.873,0.793,1.579,1.523,2.118c0.73,0.54,1.563,0.826,2.5,0.857C4.8,14.53,3.023,15.14,1.023,15.14
					c-0.381,0-0.722-0.023-1.023-0.071c1.983,1.285,4.173,1.928,6.57,1.928c1.539,0.032,2.976-0.206,4.309-0.714
					c1.333-0.508,2.476-1.158,3.428-1.952c0.952-0.793,1.769-1.722,2.452-2.785c0.682-1.063,1.19-2.167,1.523-3.309
					c0.334-1.143,0.5-2.293,0.5-3.452V4.237c0.841-0.619,1.555-1.357,2.143-2.214C20.099,2.373,19.274,2.595,18.449,2.69"/>
			</g>
		</g>
	</g>
</g>
</svg>
