<?xml version="1.0" encoding="utf-8"?>
<!-- Generator: Adobe Illustrator 17.0.0, SVG Export Plug-In . SVG Version: 6.00 Build 0)  -->
<!DOCTYPE svg PUBLIC "-//W3C//DTD SVG 1.1//EN" "http://www.w3.org/Graphics/SVG/1.1/DTD/svg11.dtd">
<svg version="1.1" id="Capa_1" xmlns="http://www.w3.org/2000/svg" xmlns:xlink="http://www.w3.org/1999/xlink" x="0px" y="0px"
	 width="16.603px" height="13.488px" viewBox="0 0 16.603 13.488" style="enable-background:new 0 0 16.603 13.488;"
	 xml:space="preserve">
<g>
	<defs>
		<rect id="SVGID_1_" x="0" y="0" width="16.603" height="13.488"/>
	</defs>
	<clipPath id="SVGID_2_">
		<use xlink:href="#SVGID_1_"  style="overflow:visible;"/>
	</clipPath>
	<path style="clip-path:url(#SVGID_2_);fill:#333333;" d="M14.638,2.134c0.743-0.453,1.24-1.083,1.492-1.889
		c-0.667,0.403-1.385,0.68-2.153,0.831C13.309,0.359,12.478,0,11.484,0c-0.932,0.012-1.732,0.346-2.399,1.001
		C8.417,1.656,8.084,2.455,8.084,3.4c0,0.252,0.031,0.509,0.094,0.774c-1.41-0.063-2.72-0.409-3.929-1.039
		C3.041,2.506,2.008,1.668,1.152,0.623C0.837,1.152,0.68,1.718,0.68,2.323c0,0.604,0.138,1.152,0.415,1.643
		C1.372,4.457,1.743,4.86,2.21,5.175C1.655,5.15,1.139,5.005,0.661,4.741v0.037c0,0.831,0.258,1.556,0.774,2.173
		s1.171,1.007,1.964,1.171C3.097,8.197,2.795,8.235,2.493,8.235c-0.189,0-0.403-0.012-0.642-0.038C2.077,8.89,2.48,9.45,3.059,9.878
		c0.58,0.428,1.241,0.655,1.984,0.68c-1.234,0.97-2.645,1.455-4.231,1.455c-0.302,0-0.573-0.019-0.812-0.057
		c1.574,1.02,3.311,1.53,5.213,1.53c1.221,0.025,2.361-0.164,3.419-0.567c1.057-0.403,1.964-0.919,2.719-1.549
		c0.756-0.629,1.404-1.366,1.946-2.21c0.541-0.843,0.944-1.718,1.209-2.625c0.264-0.907,0.396-1.82,0.396-2.739V3.362
		c0.668-0.491,1.234-1.077,1.7-1.757C15.947,1.882,15.293,2.058,14.638,2.134"/>
</g>
</svg>
